<?xml version="1.0" encoding="utf-8"?>
<!-- Generator: Adobe Illustrator 23.0.3, SVG Export Plug-In . SVG Version: 6.00 Build 0)  -->
<svg version="1.1" id="Camada_1" xmlns="http://www.w3.org/2000/svg" xmlns:xlink="http://www.w3.org/1999/xlink" x="0px" y="0px"
	 viewBox="0 0 124.1 154.8" style="enable-background:new 0 0 124.1 154.8;" xml:space="preserve">
<style type="text/css">
	.st0{fill:#FFFFFF;}
</style>
<g>
	<path class="st0" d="M41.9,118c-7.8,0-14.8-1.8-21.1-5.5c-6.3-3.6-11.2-8.6-14.9-14.9c-3.7-6.3-5.5-13.4-5.5-21.3
		c0-7.9,1.7-15,5-21.2c3.3-6.2,7.9-11.2,13.7-14.8c5.8-3.6,12.3-5.5,19.7-5.5c5.9,0,11.3,1.2,16.3,3.7c5,2.5,9.2,5.8,12.6,10V7.9
		c0-2.3,0.7-4.1,2.2-5.5c1.4-1.4,3.3-2.1,5.5-2.1c2.3,0,4.1,0.7,5.5,2.1c1.4,1.4,2.1,3.3,2.1,5.5v68.4c0,7.9-1.8,15-5.5,21.3
		c-3.7,6.3-8.6,11.3-14.8,14.9C56.7,116.2,49.7,118,41.9,118z M41.9,104.5c5.1,0,9.6-1.2,13.6-3.7c4-2.4,7.1-5.8,9.4-10.1
		c2.3-4.3,3.5-9.1,3.5-14.4c0-5.4-1.2-10.2-3.5-14.4c-2.3-4.2-5.5-7.5-9.4-10c-4-2.4-8.6-3.7-13.6-3.7c-5,0-9.5,1.2-13.6,3.7
		c-4,2.5-7.3,5.8-9.6,10c-2.4,4.2-3.5,9-3.5,14.4c0,5.3,1.2,10.1,3.5,14.4c2.3,4.3,5.6,7.7,9.6,10.1
		C32.4,103.3,36.9,104.5,41.9,104.5z"/>
</g>
<g>
	<path class="st0" d="M75.7,154.8c-2.3,0-4.1-0.6-5.4-1.9c-1.3-1.3-1.9-3.1-1.9-5.6V80.3c0-2.4,0.6-4.2,1.9-5.5
		c1.3-1.3,3.1-1.9,5.4-1.9c2.4,0,4.2,0.6,5.5,1.9c1.2,1.3,1.8,3.1,1.8,5.6v67.1c0,2.4-0.6,4.3-1.8,5.5
		C80,154.2,78.2,154.8,75.7,154.8z M75.6,103.5c0-6,1.4-11.4,4.3-16.1c2.9-4.7,6.7-8.5,11.6-11.3c4.8-2.8,10.2-4.2,16-4.2
		s10.1,1,13,2.9c2.9,1.9,3.9,4.3,3.3,7c-0.3,1.4-0.8,2.5-1.7,3.2c-0.8,0.8-1.8,1.2-2.8,1.4c-1.1,0.2-2.2,0.2-3.5-0.2
		C109.5,85,103.9,84.9,99,86c-4.9,1.1-8.8,3.1-11.7,6.1c-2.9,3-4.3,6.8-4.3,11.4H75.6z"/>
</g>
<g>
</g>
<g>
</g>
<g>
</g>
<g>
</g>
<g>
</g>
</svg>
